<svg width="30" height="30" viewBox="0 0 30 30" xmlns="http://www.w3.org/2000/svg">
<path d="M12.1289 15C12.1289 16.5857 13.4143 17.8711 15 17.8711C16.5857 17.8711 17.8711 16.5857 17.8711 15C17.8711 13.4143 16.5857 12.1289 15 12.1289C13.4143 12.1289 12.1289 13.4143 12.1289 15Z"/>
<path d="M8.28558 9.92015C8.4236 9.54616 8.64378 9.20764 8.92989 8.92978C9.20775 8.64368 9.54604 8.42349 9.92026 8.28548C10.2238 8.1676 10.6797 8.0273 11.5195 7.98907C12.4279 7.94765 12.7003 7.93872 15.0001 7.93872C17.3001 7.93872 17.5725 7.94742 18.4807 7.98885C19.3204 8.0273 19.7766 8.1676 20.0799 8.28548C20.4541 8.42349 20.7926 8.64368 21.0702 8.92978C21.3563 9.20764 21.5765 9.54593 21.7148 9.92015C21.8326 10.2236 21.9729 10.6798 22.0112 11.5196C22.0526 12.4278 22.0615 12.7001 22.0615 15.0002C22.0615 17.3 22.0526 17.5724 22.0112 18.4808C21.9729 19.3206 21.8326 19.7765 21.7148 20.08C21.5765 20.4542 21.3566 20.7925 21.0705 21.0704C20.7926 21.3565 20.4543 21.5766 20.0801 21.7147C19.7766 21.8328 19.3204 21.9731 18.4807 22.0113C17.5725 22.0527 17.3003 22.0614 15.0003 22.0614C12.7 22.0614 12.4277 22.0527 11.5197 22.0113C10.6799 21.9731 10.2238 21.8328 9.92026 21.7147C9.16907 21.4249 8.57535 20.8312 8.28558 20.08C8.16771 19.7765 8.0274 19.3206 7.98895 18.4808C7.94753 17.5724 7.93883 17.3 7.93883 15.0002C7.93883 12.7001 7.94753 12.4278 7.98895 11.5196C8.02718 10.6798 8.16748 10.2236 8.28558 9.92015ZM15.0001 19.4229C17.4429 19.4229 19.4232 17.4428 19.4232 15C19.4232 12.5571 17.4429 10.577 15.0001 10.577C12.5574 10.577 10.5771 12.5571 10.5771 15C10.5771 17.4428 12.5574 19.4229 15.0001 19.4229ZM10.4023 11.4358C10.9731 11.4358 11.4359 10.973 11.4359 10.4022C11.4359 9.83134 10.9731 9.36855 10.4023 9.36855C9.83145 9.36855 9.36865 9.83134 9.36865 10.4022C9.36888 10.973 9.83145 11.4358 10.4023 11.4358Z"/>
<path d="M15 0C23.283 0 30 6.717 30 15C30 23.283 23.283 30 15 30C6.717 30 0 23.283 0 15C0 6.717 6.717 0 15 0ZM6.43867 18.5511C6.48033 19.468 6.62613 20.094 6.83899 20.6419C7.28645 21.7989 8.20107 22.7135 9.35806 23.161C9.90578 23.3739 10.532 23.5194 11.4487 23.5613C12.3672 23.6032 12.6606 23.6133 14.9998 23.6133C17.3392 23.6133 17.6324 23.6032 18.5511 23.5613C19.4678 23.5194 20.094 23.3739 20.6417 23.161C21.2167 22.9447 21.7371 22.6057 22.1674 22.1674C22.6055 21.7374 22.9445 21.2167 23.1608 20.6419C23.3736 20.0942 23.5194 19.468 23.5611 18.5513C23.6034 17.6326 23.6133 17.3392 23.6133 15C23.6133 12.6608 23.6034 12.3674 23.5613 11.4489C23.5197 10.532 23.3741 9.90601 23.1612 9.35806C22.9449 8.78334 22.6057 8.26263 22.1674 7.83257C21.7374 7.39426 21.2167 7.05528 20.6419 6.83899C20.094 6.62613 19.468 6.48056 18.5511 6.43867C17.6326 6.39679 17.3392 6.38672 15 6.38672C12.6608 6.38672 12.3674 6.39679 11.4489 6.4389C10.532 6.48056 9.90601 6.62613 9.35806 6.83876C8.78334 7.05505 8.26263 7.39426 7.83234 7.83257C7.39426 8.26286 7.05505 8.78334 6.83899 9.35806C6.6259 9.90601 6.48033 10.532 6.43845 11.4489C6.39656 12.3674 6.38672 12.6608 6.38672 15C6.38672 17.3392 6.39656 17.6326 6.43867 18.5511Z"/>
</svg>
